<svg width="42" height="56" viewBox="0 0 42 56" fill="none" xmlns="http://www.w3.org/2000/svg">
<path d="M37.4802 22.063H37.4016C36.3287 22.057 35.2921 22.4513 34.494 23.1685C33.848 21.3807 32.2062 20.0955 30.2833 20.0955C29.1047 20.1038 27.979 20.5876 27.1625 21.4381C26.4117 19.9181 24.9055 18.8871 23.1737 18.8871H23.0901C22.1619 18.8728 21.2563 19.1747 20.522 19.7426V8.9066C20.522 6.288 18.4833 4.15784 16.0035 4.15784C13.5264 4.15784 11.4982 6.28663 11.4968 8.90339L11.4762 30.4026L10.2594 28.9249C9.19253 27.5966 7.62201 26.7718 5.92284 26.6473C4.25859 26.5333 2.62145 27.1123 1.39922 28.2481L0.340572 29.1253C-0.000824709 29.4083 -0.0982353 29.8908 0.106235 30.2841L10.3991 50.069C12.2812 53.6847 15.8619 55.9403 19.7441 55.9403H31.3438V55.9302C37.2252 55.9302 41.9937 50.8267 41.9997 44.5602C42.002 41.7565 41.9914 39.6667 41.9932 37.9731C41.9992 33.4417 41.9946 31.7696 41.9831 26.7773C41.9772 24.1647 39.9531 22.063 37.4802 22.063ZM40.0974 37.9667C40.0956 39.6608 40.0928 41.7588 40.0901 44.5625C40.085 49.7929 36.1367 54.0578 31.2886 54.0578H19.7446C16.5668 54.0578 13.6256 52.19 12.0694 49.1997L2.12659 30.0939L2.61731 29.6845C2.62972 29.6744 2.64167 29.6624 2.65361 29.6518C3.49768 28.8574 4.63353 28.4494 5.79005 28.5252C6.9723 28.6157 8.06312 29.1937 8.80243 30.1205L11.6829 33.6255C11.9347 33.9328 12.3529 34.0482 12.7269 33.9145C13.1009 33.7808 13.3509 33.426 13.3509 33.029L13.3679 8.9043C13.3688 7.3246 14.5634 6.03942 16.0044 6.03942C17.4453 6.03942 18.64 7.32598 18.64 8.9066V23.4525C18.64 23.503 18.6377 23.554 18.6377 23.6055C18.6377 23.6275 18.64 23.6501 18.64 23.6717V29.8908C18.64 30.4104 19.0613 30.8318 19.581 30.8318C20.1007 30.8318 20.522 30.4104 20.522 29.8908V23.4842C20.522 21.9601 21.6863 20.7691 23.0901 20.7691H23.1737C24.6156 20.7691 25.8153 22.0258 25.8153 23.6064V29.2971C25.8153 29.8168 26.2366 30.2381 26.7563 30.2381C27.276 30.2381 27.6973 29.8168 27.6973 29.2971V24.8323C27.6973 23.2512 28.8396 21.9651 30.2893 21.9651C31.7307 21.9651 32.8729 23.2508 32.8729 24.8323V29.0444C32.8729 29.5641 33.2943 29.9854 33.814 29.9854C34.3336 29.9854 34.755 29.5641 34.755 29.0444V26.7635C34.755 25.1824 35.9598 23.945 37.4016 23.945H37.4802C38.9184 23.945 40.0905 25.2036 40.0942 26.7796C40.1057 31.7682 40.1034 33.4384 40.0974 37.9667Z" fill="#ACFE00"/>
<path d="M8.50743 9.31282C9.02711 9.31282 9.44845 8.89147 9.44845 8.37179C9.46361 4.78093 12.379 1.87837 15.9694 1.87837C19.5603 1.87837 22.4753 4.78093 22.4904 8.37179C22.4904 8.89147 22.9118 9.31282 23.4315 9.31282C23.9511 9.31282 24.3725 8.89147 24.3725 8.37179C24.355 3.74295 20.5983 0 15.9694 0C11.3411 0 7.58387 3.74295 7.56641 8.37179C7.56641 8.89147 7.98775 9.31282 8.50743 9.31282Z" fill="#ACFE00"/>
</svg>
