<svg width="52" height="52" viewBox="0 0 52 52" fill="none" xmlns="http://www.w3.org/2000/svg">
<g clip-path="url(#clip0)">
<path d="M25.9699 0.00299072C25.0378 0.00299072 24.1064 0.0530985 23.1796 0.152989C22.3302 0.239755 21.4912 0.382052 20.6634 0.554718C20.5032 0.588232 20.3429 0.623589 20.1827 0.660573C15.3057 1.77097 10.8524 4.26453 7.35687 7.84225C7.03182 8.17543 6.71361 8.51848 6.40244 8.8713C-3.03994 19.7115 -1.90677 36.1538 8.93353 45.5961C19.3117 54.636 34.9335 54.0345 44.5858 44.2235C44.9115 43.8903 45.2296 43.5473 45.5403 43.1944C49.7073 38.449 52.0037 32.3483 52 26.0329C52 11.6568 40.346 0.00288227 25.9699 0.00299072ZM8.51347 9.14375C8.65056 9.00145 8.79286 8.86523 8.93255 8.72727C9.09394 8.56848 9.25446 8.40883 9.41931 8.25526C9.56421 8.1199 9.71345 7.98975 9.86182 7.85786C10.0293 7.70949 10.1959 7.56112 10.3677 7.41796C10.5186 7.29041 10.674 7.16807 10.8284 7.04486C11.0019 6.90603 11.1755 6.76721 11.3542 6.63359C11.5121 6.51472 11.6726 6.39932 11.834 6.28652C12.0136 6.15811 12.1941 6.02622 12.3772 5.90648C12.5412 5.79542 12.7069 5.68783 12.8735 5.58111C13.0592 5.46224 13.2457 5.3451 13.434 5.23404C13.6035 5.13285 13.7741 5.03329 13.9459 4.93556C14.138 4.82624 14.3308 4.71952 14.5247 4.6154C14.6982 4.52288 14.8717 4.43232 15.0453 4.34382C15.2431 4.24404 15.4427 4.14772 15.6431 4.05315C15.8166 3.97072 15.9971 3.88829 16.1758 3.8102C16.3797 3.72344 16.5862 3.63667 16.7927 3.5499C16.9723 3.47615 17.1511 3.40413 17.3324 3.33472C17.5424 3.2549 17.755 3.18028 17.9676 3.10566C18.1489 3.04232 18.3302 2.97898 18.5142 2.91911C18.7302 2.8497 18.948 2.78549 19.1667 2.72215C19.3498 2.66922 19.5311 2.61456 19.715 2.5651C19.7853 2.54688 19.8556 2.53213 19.9259 2.51391C17.3576 5.00769 15.4517 8.10266 14.3806 11.5185C12.3212 10.9754 10.3275 10.2082 8.43538 9.23051C8.46401 9.20014 8.48831 9.16978 8.51347 9.14375ZM7.26577 10.5407C9.35001 11.67 11.5602 12.5496 13.8505 13.161C12.7277 17.0651 12.1384 21.1031 12.0987 25.1652H1.69535C1.88439 19.8086 3.84326 14.6657 7.26577 10.5407ZM7.26577 41.5251C3.84347 37.3999 1.88461 32.2571 1.69535 26.9005H12.0987C12.1384 30.9626 12.7276 35.0006 13.8505 38.9047C11.5603 39.5164 9.35012 40.3959 7.26577 41.5251ZM19.7098 49.5041C19.5346 49.4599 19.3532 49.4026 19.1728 49.3497C18.9532 49.2855 18.7328 49.2213 18.5159 49.151C18.3328 49.092 18.1524 49.0286 17.9719 48.9653C17.7585 48.8915 17.545 48.8161 17.3342 48.7354C17.1537 48.6668 16.9758 48.5948 16.7971 48.5219C16.5897 48.4351 16.3823 48.3484 16.1767 48.2616C15.9997 48.1835 15.8236 48.1032 15.6483 48.0204C15.4461 47.925 15.2448 47.8278 15.0409 47.7271C14.8674 47.6404 14.6939 47.5536 14.5203 47.459C14.3242 47.354 14.1299 47.2464 13.9355 47.1354C13.762 47.0391 13.5971 46.9402 13.4297 46.8395C13.2388 46.725 13.0514 46.607 12.8639 46.4864C12.6991 46.3814 12.5342 46.2747 12.372 46.1653C12.1872 46.0404 12.0041 45.9102 11.8228 45.7801C11.664 45.6664 11.5052 45.5528 11.349 45.433C11.1694 45.2977 10.9933 45.158 10.818 45.0174C10.6644 44.8951 10.5117 44.7736 10.3616 44.6478C10.1881 44.5038 10.0206 44.3536 9.85228 44.2044C9.70478 44.0734 9.55641 43.9441 9.41237 43.8105C9.24665 43.656 9.08613 43.4955 8.92474 43.3367C8.78505 43.1988 8.64275 43.0626 8.50566 42.9211C8.4805 42.8942 8.4562 42.8665 8.43104 42.8404C10.3231 41.8624 12.3168 41.0948 14.3763 40.5515C15.4475 43.9673 17.3534 47.0622 19.9215 49.5562C19.8513 49.538 19.7801 49.5232 19.7098 49.5041ZM25.1024 50.259C21.3896 49.7314 18.135 45.8564 16.0873 40.1342C19.0478 39.4713 22.0689 39.1157 25.1024 39.073V50.259ZM25.1024 37.3377C21.8844 37.38 18.68 37.7622 15.5424 38.4778C14.453 34.7135 13.8783 30.819 13.834 26.9005H25.1024V37.3377ZM25.1024 25.1652H13.834C13.8781 21.2467 14.4529 17.3522 15.5424 13.5879C18.68 14.3034 21.8845 14.6856 25.1024 14.728V25.1652ZM25.1024 12.9927C22.0688 12.9504 19.0478 12.5948 16.0873 11.9316C18.135 6.2093 21.3896 2.3343 25.1024 1.80676V12.9927ZM44.6743 10.5407C48.0966 14.6658 50.0555 19.8087 50.2447 25.1652H39.8414C39.8017 21.1031 39.2125 17.0651 38.0896 13.161C40.3798 12.5492 42.59 11.6697 44.6743 10.5407ZM32.2233 2.56076C32.4055 2.60588 32.5869 2.66315 32.7673 2.71607C32.9869 2.78028 33.2073 2.84449 33.4242 2.91477C33.6072 2.97377 33.7877 3.03711 33.9682 3.10045C34.1816 3.1742 34.3951 3.24969 34.6059 3.33038C34.7864 3.39893 34.9643 3.47094 35.143 3.54383C35.3504 3.63059 35.5578 3.71736 35.7634 3.80413C35.9404 3.88222 36.1165 3.96259 36.2918 4.04534C36.494 4.14078 36.6953 4.23796 36.8992 4.33861C37.0727 4.42538 37.2462 4.51214 37.4198 4.60672C37.6159 4.71171 37.8102 4.8193 38.0046 4.93036C38.1781 5.02667 38.343 5.12558 38.5104 5.22623C38.7013 5.34077 38.8887 5.45877 39.0761 5.57937C39.241 5.68436 39.4059 5.79108 39.5681 5.90041C39.7529 6.02535 39.9351 6.15464 40.1165 6.28479C40.2761 6.39845 40.4349 6.51298 40.592 6.63185C40.7707 6.76634 40.946 6.90603 41.1221 7.0466C41.2748 7.16807 41.4284 7.28954 41.5785 7.41622C41.752 7.56026 41.9195 7.71036 42.0878 7.8596C42.2353 7.99062 42.3837 8.1199 42.5277 8.25352C42.6934 8.40797 42.854 8.56848 43.0154 8.72727C43.155 8.86523 43.2973 9.00145 43.4344 9.14288C43.4596 9.16978 43.4839 9.19754 43.5091 9.22357C41.617 10.2016 39.6233 10.9692 37.5638 11.5125C36.4905 8.09626 34.5822 5.00162 32.0116 2.5087C32.0819 2.52692 32.153 2.54167 32.2233 2.56076ZM26.8377 1.80676C30.5505 2.3343 33.8051 6.2093 35.8528 11.9316C32.8923 12.5945 29.8712 12.9501 26.8377 12.9927V1.80676ZM26.8377 14.728C30.0557 14.6857 33.2601 14.3035 36.3977 13.5879C37.4871 17.3522 38.0618 21.2467 38.1061 25.1652H26.8377V14.728ZM26.8377 26.9005H38.1061C38.062 30.819 37.4872 34.7135 36.3977 38.4778C33.2601 37.7623 30.0557 37.3801 26.8377 37.3377V26.9005ZM26.8377 50.259V39.073C29.8713 39.1153 32.8923 39.471 35.8528 40.1342C33.8051 45.8564 30.5505 49.7314 26.8377 50.259ZM43.4266 42.922C43.2895 43.0634 43.1481 43.1996 43.0084 43.3376C42.847 43.4964 42.6856 43.6569 42.5199 43.8114C42.3759 43.9458 42.2275 44.0717 42.08 44.2061C41.9117 44.3554 41.7442 44.5046 41.5724 44.6487C41.4206 44.7753 41.2661 44.8977 41.1117 45.0209C40.9382 45.1597 40.7646 45.2985 40.5859 45.4322C40.428 45.551 40.2675 45.6664 40.1061 45.7792C39.9265 45.9076 39.746 46.0395 39.5629 46.1593C39.3989 46.2703 39.2332 46.3779 39.0666 46.4838C38.8809 46.6035 38.6938 46.7192 38.5052 46.8308C38.3317 46.9324 38.166 47.0313 37.995 47.1293C37.803 47.2386 37.6098 47.3454 37.4154 47.4495C37.2419 47.542 37.0684 47.6326 36.8948 47.7211C36.697 47.8208 36.4974 47.9172 36.297 48.0117C36.1235 48.0942 35.943 48.1766 35.7643 48.2547C35.5604 48.3414 35.3539 48.4282 35.1474 48.515C34.9677 48.5879 34.789 48.6607 34.6085 48.7293C34.3968 48.81 34.1842 48.8855 33.9708 48.9592C33.7903 49.0226 33.6099 49.0859 33.4268 49.1449C33.2099 49.2152 32.9929 49.2794 32.7717 49.3427C32.5903 49.3965 32.4081 49.4503 32.2251 49.4998C32.1548 49.518 32.0845 49.5327 32.0142 49.551C34.5825 47.0572 36.4884 43.9622 37.5595 40.5463C39.6189 41.0895 41.6126 41.8567 43.5047 42.8344C43.4761 42.8656 43.4518 42.896 43.4266 42.922ZM44.6743 41.5251C42.5901 40.3958 40.3799 39.5162 38.0896 38.9047C39.2124 35.0006 39.8017 30.9626 39.8414 26.9005H50.2447C50.0558 32.2571 48.0968 37.4001 44.6743 41.5251Z" fill="#ACFE00"/>
</g>
<defs>
<clipPath id="clip0">
<rect width="52" height="52" fill="white"/>
</clipPath>
</defs>
</svg>
