<svg width="41" height="41" viewBox="0 0 41 41" fill="none" xmlns="http://www.w3.org/2000/svg">
<circle cx="20.5" cy="20.5" r="20.5" fill="#ACFE00"/>
<path d="M21.3333 7C16.187 7 12 11.187 12 16.3333C12 17.8783 12.3863 19.41 13.1205 20.7687L20.8229 34.6992C20.9255 34.8849 21.1209 34.9999 21.3333 34.9999C21.5458 34.9999 21.7412 34.8849 21.8437 34.6992L29.549 20.7641C30.2804 19.41 30.6667 17.8782 30.6667 16.3333C30.6667 11.187 26.4796 7 21.3333 7ZM21.3333 21C18.7602 21 16.6667 18.9065 16.6667 16.3333C16.6667 13.7602 18.7602 11.6667 21.3333 11.6667C23.9065 11.6667 26 13.7602 26 16.3333C26 18.9065 23.9065 21 21.3333 21Z" fill="#1C1C1C"/>
</svg>
