<svg width="41" height="41" viewBox="0 0 41 41" fill="none" xmlns="http://www.w3.org/2000/svg">
<path d="M20.5 0C9.17989 0 0 9.17989 0 20.5C0 31.8201 9.17989 41 20.5 41C31.8201 41 41 31.8201 41 20.5C41 9.17989 31.8201 0 20.5 0ZM20.9345 32.4357C20.9342 32.4357 20.9348 32.4357 20.9345 32.4357H20.9295C18.8759 32.4348 16.858 31.9199 15.0659 30.9427L8.56179 32.6484L10.3026 26.2922C9.22869 24.4323 8.66376 22.3221 8.6647 20.1603C8.66752 13.3974 14.1716 7.89552 20.9345 7.89552C24.2164 7.89677 27.2973 9.17426 29.6136 11.4925C31.9302 13.811 33.2052 16.8927 33.204 20.17C33.2011 26.9332 27.6964 32.4357 20.9345 32.4357Z" fill="#ACFE00"/>
<path d="M20.9385 9.96753C15.3134 9.96753 10.7386 14.5404 10.7361 20.1615C10.7355 22.0878 11.2747 23.9637 12.2954 25.5868L12.5378 25.9725L11.5075 29.7346L15.3672 28.7224L15.7397 28.9432C17.3053 29.8723 19.1002 30.3637 20.9301 30.3643H20.9342C26.555 30.3643 31.1297 25.7911 31.1322 20.1697C31.1332 17.4454 30.0734 14.8842 28.1481 12.9573C26.2228 11.0304 23.6621 9.96847 20.9385 9.96753ZM26.9369 24.5446C26.6813 25.2603 25.4567 25.9137 24.8677 26.0019C24.3394 26.0807 23.6712 26.1136 22.9367 25.8806C22.4913 25.7392 21.9204 25.5505 21.1888 25.2349C18.1136 23.9074 16.1051 20.8119 15.9518 20.6073C15.7985 20.4027 14.7 18.9454 14.7 17.4367C14.7 15.9283 15.492 15.1867 15.7729 14.8801C16.0541 14.5733 16.3863 14.4966 16.5905 14.4966C16.7948 14.4966 16.9994 14.4985 17.178 14.5073C17.3663 14.5167 17.619 14.4356 17.8677 15.0334C18.1233 15.6471 18.7364 17.1555 18.813 17.3088C18.8897 17.4623 18.9407 17.6413 18.8387 17.8458C18.7364 18.0504 18.3967 18.4918 18.0723 18.8941C17.9362 19.0627 17.7589 19.2128 17.9378 19.5197C18.1164 19.8262 18.732 20.83 19.6432 21.6427C20.8144 22.6868 21.8022 23.0103 22.1087 23.1638C22.415 23.3171 22.5939 23.2915 22.7728 23.0872C22.9514 22.8826 23.5392 22.1923 23.7435 21.8854C23.9477 21.5785 24.1523 21.6298 24.4332 21.7321C24.7144 21.8341 26.2215 22.5758 26.5281 22.729C26.8346 22.8826 27.0389 22.9593 27.1155 23.0872C27.1925 23.2151 27.1925 23.8286 26.9369 24.5446Z" fill="#ACFE00"/>
</svg>
