<svg width="56" height="56" viewBox="0 0 56 56" fill="none" xmlns="http://www.w3.org/2000/svg">
<g clip-path="url(#clip0)">
<path d="M0.919613 27.9876H0.952279C1.45557 27.9879 1.86844 27.5891 1.88559 27.086C2.39051 12.6621 14.4927 1.37862 28.9165 1.88343C34.4646 2.07767 39.8066 4.03354 44.1684 7.46778H39.2013C38.6858 7.46778 38.268 7.88567 38.268 8.40109C38.268 8.91652 38.6858 9.33441 39.2013 9.33441H46.6678H46.6808C46.7539 9.32846 46.8258 9.31411 46.8955 9.29147C46.9432 9.28459 46.9902 9.27432 47.0364 9.26067C47.0626 9.24947 47.0822 9.22614 47.1074 9.21214C47.1911 9.17119 47.268 9.11729 47.3351 9.05255L47.3444 9.04601C47.3681 9.01358 47.3897 8.97963 47.4088 8.94428C47.4577 8.88478 47.4989 8.81922 47.5311 8.74922C47.5567 8.67479 47.5725 8.59732 47.5777 8.51869C47.5885 8.48019 47.5963 8.44088 47.6011 8.40109V0.934599C47.6011 0.419177 47.1832 0.00128669 46.6678 0.00128669C46.1523 0.00128669 45.7345 0.419177 45.7345 0.934599V6.34034C33.7763 -3.45733 16.1395 -1.70597 6.3418 10.2523C2.45304 14.9987 0.231529 20.8913 0.0189673 27.0235C0.00170098 27.5383 0.404775 27.9698 0.919613 27.9876Z" fill="#ACFE00"/>
<path d="M8.47457 45.3686C8.13204 44.982 7.54102 44.9463 7.1544 45.2888C6.76777 45.6314 6.73208 46.2224 7.0746 46.609C7.71707 47.33 8.39582 48.0178 9.10829 48.6698C9.49573 49.0098 10.0853 48.9713 10.4254 48.584C10.7558 48.2075 10.7301 47.6375 10.3673 47.2922C9.70397 46.6838 9.07224 46.0418 8.47457 45.3686Z" fill="#ACFE00"/>
<path d="M19.6126 52.7586C18.7593 52.4698 17.9217 52.1367 17.1029 51.7609C16.6411 51.5321 16.0811 51.7211 15.8523 52.183C15.6235 52.6449 15.8125 53.2049 16.2744 53.4336C16.2903 53.4415 16.3064 53.4489 16.3227 53.4558C17.2005 53.8599 18.099 54.2175 19.0144 54.5273C19.5027 54.6924 20.0326 54.4304 20.1978 53.9421C20.3631 53.4537 20.1011 52.9238 19.6126 52.7586Z" fill="#ACFE00"/>
<path d="M14.71 50.5066V50.5056C13.9343 50.0461 13.1824 49.5477 12.457 49.0123C12.0523 48.693 11.4655 48.7623 11.1462 49.167C10.8269 49.5717 10.8962 50.1586 11.3009 50.4779C11.3161 50.4898 11.3314 50.5013 11.3473 50.5123C12.1231 51.0866 12.9278 51.6208 13.7581 52.1129C14.2016 52.3758 14.7743 52.2293 15.0372 51.7858C15.3001 51.3421 15.1536 50.7694 14.71 50.5066Z" fill="#ACFE00"/>
<path d="M6.78428 43.2621C6.25812 42.5306 5.76977 41.7727 5.32084 40.9914C5.06313 40.5442 4.49171 40.3907 4.04454 40.6484C3.59737 40.9061 3.44384 41.4775 3.70155 41.9247C4.18244 42.7601 4.70579 43.5704 5.26951 44.3522C5.57902 44.7644 6.16409 44.8476 6.57627 44.5381C6.97666 44.2374 7.06847 43.6744 6.78428 43.2621Z" fill="#ACFE00"/>
<path d="M4.18103 38.9677C4.18103 38.8377 4.15374 38.709 4.10112 38.5901L4.09925 38.5836C3.73398 37.7608 3.41152 36.9197 3.13327 36.0636C2.99794 35.5663 2.48497 35.2728 1.98763 35.4082C1.4903 35.5435 1.19677 36.0565 1.33222 36.5538C1.34015 36.5828 1.34937 36.6114 1.35998 36.6395C1.65782 37.5589 2.00303 38.4623 2.39409 39.3461C2.54377 39.6839 2.8786 39.9016 3.24807 39.9014C3.76349 39.9012 4.18115 39.4832 4.18103 38.9677Z" fill="#ACFE00"/>
<path d="M1.71692 34.5582C1.71704 34.5582 1.71727 34.5581 1.71739 34.5581C2.22103 34.4507 2.54255 33.9559 2.43604 33.4521C2.25008 32.5705 2.10926 31.6799 2.01418 30.7838C1.95982 30.2709 1.49993 29.8992 0.987072 29.9536C0.474217 30.0079 0.102525 30.4678 0.156891 30.9807C0.259088 31.9405 0.410401 32.8943 0.61048 33.8385C0.717344 34.3428 1.2127 34.6649 1.71692 34.5582Z" fill="#ACFE00"/>
<path d="M54.5077 33.6054C54.5074 33.6053 54.507 33.6053 54.5067 33.6052C54.0064 33.4813 53.5004 33.7862 53.3764 34.2865C53.1601 35.1615 52.8988 36.0247 52.5934 36.8727C52.4186 37.3578 52.6701 37.8926 53.1552 38.0673C53.6403 38.2421 54.1751 37.9906 54.3499 37.5055C54.6773 36.5972 54.9577 35.6726 55.1898 34.7354C55.3135 34.235 55.0081 33.7292 54.5077 33.6054Z" fill="#ACFE00"/>
<path d="M24.8747 53.9467C23.9801 53.8402 23.0917 53.6876 22.2129 53.4894C21.7101 53.3758 21.2103 53.6912 21.0966 54.1941C20.983 54.6969 21.2985 55.1967 21.8013 55.3103C22.7432 55.5226 23.6956 55.6862 24.6544 55.8003C24.6917 55.8049 24.729 55.807 24.7664 55.8068C25.2819 55.8058 25.6988 55.387 25.6978 54.8715C25.6968 54.3995 25.3436 54.0025 24.8747 53.9467Z" fill="#ACFE00"/>
<path d="M52.7864 38.9288C52.3224 38.7048 51.7647 38.8991 51.5403 39.3628C51.1479 40.1741 50.7137 40.9645 50.2392 41.7306C49.9754 42.1735 50.1205 42.7463 50.5633 43.0101C50.9953 43.2676 51.5538 43.1363 51.8259 42.7134C52.3338 41.8922 52.799 41.0451 53.2193 40.1757C53.4441 39.7119 53.2502 39.1536 52.7864 38.9288Z" fill="#ACFE00"/>
<path d="M50.0291 43.7829C49.6257 43.462 49.0385 43.529 48.7177 43.9325C48.7121 43.9395 48.7066 43.9467 48.7012 43.9538V43.9519C48.1506 44.6662 47.5634 45.3515 46.9419 46.0052C46.5866 46.3789 46.6014 46.97 46.9751 47.3254C47.3487 47.6807 47.9399 47.6659 48.2952 47.2922C48.9597 46.5919 49.5884 45.8583 50.1786 45.0943C50.4995 44.6909 50.4325 44.1037 50.0291 43.7829Z" fill="#ACFE00"/>
<path d="M55.0823 28.0445C54.5753 28.0186 54.1431 28.4087 54.1173 28.9157C54.1169 28.9252 54.1165 28.9348 54.1163 28.9442C54.0847 29.8448 54.0064 30.7433 53.882 31.6359C53.8117 32.1458 54.1675 32.6163 54.6772 32.6877C54.7205 32.694 54.7641 32.6972 54.8079 32.697C55.273 32.6963 55.6668 32.3532 55.7309 31.8925C55.8638 30.9365 55.9476 29.9742 55.982 29.0095C55.9998 28.4947 55.5972 28.0627 55.0823 28.0445Z" fill="#ACFE00"/>
<path d="M44.9866 47.8615V47.8643C44.2997 48.4507 43.5833 49.0014 42.84 49.5144C42.415 49.8082 42.3087 50.3909 42.6025 50.8159C42.8962 51.2409 43.479 51.3472 43.904 51.0534C44.6988 50.5015 45.465 49.9097 46.1999 49.2802C46.5917 48.9451 46.6376 48.3559 46.3026 47.9642C45.9676 47.5724 45.3784 47.5265 44.9866 47.8615Z" fill="#ACFE00"/>
<path d="M35.5704 53.0209C34.7079 53.2808 33.8326 53.4957 32.9478 53.6649C32.4416 53.7623 32.1101 54.2515 32.2075 54.7577C32.2919 55.1965 32.6755 55.5139 33.1223 55.5147C33.1815 55.515 33.2405 55.5096 33.2987 55.4988C34.2472 55.3176 35.1855 55.0868 36.1098 54.8073C36.5994 54.6459 36.8655 54.1182 36.7041 53.6287C36.5485 53.1565 36.0499 52.8892 35.5704 53.0209Z" fill="#ACFE00"/>
<path d="M30.3196 54.032C30.3024 54.033 30.2854 54.0345 30.2684 54.0364L30.273 54.0401C29.5264 54.1036 28.762 54.1334 28.0004 54.1334H27.5739C27.0649 54.1407 26.6489 54.5415 26.6228 55.0499C26.6135 55.5654 27.0237 55.9907 27.539 56C27.5391 56 27.5392 56 27.5394 56H28.0004C28.8161 56 29.6337 55.9636 30.427 55.8955C30.9416 55.8659 31.3348 55.4247 31.305 54.9101C31.2753 54.3954 30.8341 54.0023 30.3196 54.032Z" fill="#ACFE00"/>
<path d="M40.5431 50.9312H40.544C39.7539 51.3639 38.9421 51.7558 38.1118 52.1053C37.6342 52.2991 37.404 52.8433 37.5977 53.3209C37.7914 53.7986 38.3357 54.0287 38.8133 53.8351C38.8203 53.8323 38.8272 53.8294 38.8341 53.8263C39.7238 53.452 40.5935 53.0321 41.4399 52.5682C41.892 52.3206 42.0577 51.7533 41.81 51.3013C41.5625 50.8492 40.9952 50.6835 40.5431 50.9312Z" fill="#ACFE00"/>
<path d="M28.0003 8.40112C17.1758 8.40112 8.40076 17.1761 8.40076 28.0007C8.40076 38.8252 17.1758 47.6002 28.0003 47.6002C38.8249 47.6002 47.5999 38.8252 47.5999 28.0007C47.5876 17.1813 38.8197 8.41349 28.0003 8.40112ZM42.9333 28.934H45.6856C45.2008 37.9774 37.9771 45.2011 28.9336 45.686V42.9337C28.9336 42.4182 28.5157 42.0004 28.0003 42.0004C27.4849 42.0004 27.067 42.4182 27.067 42.9337V45.686C18.0236 45.2011 10.7998 37.9774 10.315 28.934H13.0673C13.5827 28.934 14.0006 28.5161 14.0006 28.0007C14.0006 27.4853 13.5827 27.0674 13.0673 27.0674H10.315C10.7998 18.0239 18.0236 10.8002 27.067 10.3153V13.0677C27.067 13.5831 27.4849 14.001 28.0003 14.001C28.5157 14.001 28.9336 13.5831 28.9336 13.0677V10.3153C37.9771 10.8002 45.2008 18.0239 45.6856 27.0674H42.9333C42.4179 27.0674 42 27.4853 42 28.0007C42 28.5161 42.4179 28.934 42.9333 28.934Z" fill="#ACFE00"/>
<path d="M28.9337 25.3725V16.8009C28.9337 16.2855 28.5158 15.8676 28.0004 15.8676C27.485 15.8676 27.0671 16.2855 27.0671 16.8009V25.3725C26.2767 25.6548 25.6545 26.277 25.3722 27.0674H20.5339C20.0185 27.0674 19.6006 27.4852 19.6006 28.0007C19.6006 28.5161 20.0185 28.934 20.5339 28.934H25.3722C25.8836 30.3895 27.4782 31.1548 28.9337 30.6433C30.3892 30.1319 31.1545 28.5373 30.6431 27.0818C30.3621 26.2822 29.7333 25.6535 28.9337 25.3725ZM28.0004 28.934C27.485 28.934 27.0671 28.5161 27.0671 28.0007C27.0671 27.4852 27.485 27.0674 28.0004 27.0674C28.5158 27.0674 28.9337 27.4852 28.9337 28.0007C28.9337 28.5161 28.5159 28.934 28.0004 28.934Z" fill="#ACFE00"/>
</g>
<defs>
<clipPath id="clip0">
<rect width="56" height="56" fill="white"/>
</clipPath>
</defs>
</svg>
